<svg width="99" height="101" viewBox="0 0 99 101" fill="none" xmlns="http://www.w3.org/2000/svg">
<path d="M7.76657 45.956C7.80476 44.9425 8.5946 44.1186 9.606 44.0428C15.7178 43.5848 36.3055 42.1261 50.3105 42.1509C63.7768 42.1749 83.5526 43.5924 89.5032 44.0428C90.5092 44.119 91.2929 44.9352 91.3372 45.9432L93.3018 90.6367C93.3537 91.8178 92.3897 92.7875 91.209 92.727C84.5621 92.3868 64.223 91.4064 50.3105 91.3935C35.9496 91.3802 14.9286 92.3853 8.17466 92.7286C6.99916 92.7883 6.03824 91.8269 6.08256 90.6507L7.76657 45.956Z" fill="#FFD910"/>
<path d="M7.76657 45.956C7.80476 44.9425 8.5946 44.1186 9.606 44.0428C15.7178 43.5848 36.3055 42.1261 50.3105 42.1509C63.7768 42.1749 83.5526 43.5924 89.5032 44.0428C90.5092 44.119 91.2929 44.9352 91.3372 45.9432L93.3018 90.6367C93.3537 91.8178 92.3897 92.7875 91.209 92.727C84.5621 92.3868 64.223 91.4064 50.3105 91.3935C35.9496 91.3802 14.9286 92.3853 8.17466 92.7286C6.99916 92.7883 6.03824 91.8269 6.08256 90.6507L7.76657 45.956Z" stroke="white"/>
<path d="M77.2661 92.8425C77.0919 93.461 76.9976 94.1232 76.9976 94.8115C76.9976 98.2292 79.3235 101 82.1926 101C85.0617 101 87.3876 98.2292 87.3876 94.8115C87.3876 94.1232 87.2933 93.461 87.1191 92.8425H77.2661Z" fill="#FFD910"/>
<path d="M14.3146 92.8425C14.1405 93.461 14.0461 94.1232 14.0461 94.8115C14.0461 98.2292 16.372 101 19.2412 101C22.1103 101 24.4362 98.2292 24.4362 94.8115C24.4362 94.1232 24.3418 93.461 24.1677 92.8425H14.3146Z" fill="#FFD910"/>
<path d="M90.2962 31.8617C90.5564 30.0756 92.088 28.751 93.893 28.751C95.6204 28.751 97.1092 29.9668 97.4544 31.6593L98.0214 34.4394C98.5271 36.9188 96.6325 39.2388 94.1021 39.2388H93.8464C91.4077 39.2388 89.5366 37.0753 89.8882 34.6621L90.2962 31.8617Z" fill="#FFD910"/>
<path d="M93.4995 39.8206L91.0548 42.1512" stroke="#FFD910" stroke-linecap="round"/>
<path d="M1.67485 31.8617C1.93507 30.0756 3.46662 28.751 5.27162 28.751C6.99903 28.751 8.48782 29.9668 8.83304 31.6593L9.40008 34.4394C9.90577 36.9188 8.01117 39.2388 5.48077 39.2388H5.22508C2.78641 39.2388 0.915289 37.0753 1.26686 34.6621L1.67485 31.8617Z" fill="#FFD910"/>
<path d="M7.323 39.8206L9.76772 42.1512" stroke="#FFD910" stroke-linecap="round"/>
<path d="M55.3043 76.7548L55.3009 76.7388L55.2964 76.723L54.8154 76.8596C55.2964 76.723 55.2963 76.7228 55.2963 76.7227L55.2962 76.7222L55.2958 76.7209L55.2945 76.7165L55.2901 76.7013C55.2863 76.6882 55.2807 76.6695 55.2734 76.6455C55.2589 76.5974 55.2374 76.528 55.2091 76.4403C55.1524 76.2651 55.0679 76.0165 54.9558 75.7188C54.7322 75.125 54.3959 74.3288 53.9464 73.5289C53.499 72.7326 52.9269 71.9101 52.2241 71.2822C51.5185 70.6519 50.6524 70.1938 49.635 70.1975C48.6184 70.2012 47.7727 70.6647 47.0962 71.3015C46.4239 71.9344 45.894 72.7599 45.4883 73.5562C45.0806 74.3563 44.7859 75.1515 44.5935 75.744C44.497 76.0411 44.4256 76.2892 44.378 76.4641C44.3542 76.5516 44.3364 76.6208 44.3243 76.6689C44.3183 76.6929 44.3137 76.7116 44.3106 76.7247L44.3069 76.7399L44.3059 76.7443L44.3056 76.7456L44.3055 76.7461C44.3054 76.7463 44.3054 76.7464 44.785 76.8578L44.3054 76.7464L44.3049 76.7486L42.7465 83.596C42.4285 84.9934 40.5928 85.158 40.0338 83.876C38.0425 79.3094 35.3413 72.7048 34.0739 67.7995C33.0027 63.6538 32.3532 59.8247 32.5284 56.7406C32.7035 53.6576 33.6913 51.4326 35.779 50.2982C37.951 49.118 40.0475 49.0951 42.3158 49.3962C43.0129 49.4887 43.7376 49.615 44.4873 49.7455C46.138 50.0331 47.9104 50.3418 49.7783 50.3589C51.8865 50.3781 53.6184 50.0715 55.1718 49.7964C55.7361 49.6965 56.2768 49.6007 56.8035 49.5263C58.7838 49.2464 60.6909 49.2346 63.2522 50.3193C66.5594 51.7199 67.3736 55.1174 67.1437 58.7969C66.9154 62.4508 65.6621 66.1424 65.1097 67.7633C63.5061 72.4692 61.1737 78.5852 59.4242 83.0745C58.8906 84.4437 56.9181 84.289 56.6072 82.8374L55.3043 76.7548Z" fill="white" stroke="#90CDC2"/>
<path fill-rule="evenodd" clip-rule="evenodd" d="M86.4364 18.3182C86.3357 17.2945 85.4747 16.5142 84.4461 16.5142H14.9585C13.9231 16.5142 13.0588 17.3045 12.9665 18.3358L11.2015 38.0468C11.0911 39.2794 12.1091 40.3172 13.3434 40.2276C19.6245 39.7717 37.1283 38.5835 49.1892 38.5655C61.6694 38.5469 79.7984 39.7643 86.2348 40.2274C87.4758 40.3167 88.4985 39.2671 88.3766 38.0289L86.4364 18.3182ZM28.7319 18.7193C27.2428 18.7193 25.9016 19.8022 25.3378 21.4597L22.8375 28.8101C21.8506 31.7116 23.625 34.8903 26.2316 34.8903H73.9242C76.3743 34.8903 78.1352 32.0562 77.441 29.2304L75.6352 21.8799C75.1748 20.0056 73.7435 18.7193 72.1185 18.7193H28.7319Z" fill="#FFD910"/>
<path d="M81.1842 10.6729C82.3519 11.8039 81.4664 13.6011 79.8408 13.6011H19.7604C18.1348 13.6011 17.2493 11.8038 18.417 10.6729C24.9058 4.38851 36.5345 0.199951 49.8006 0.199951C63.0667 0.199951 74.6954 4.38851 81.1842 10.6729Z" fill="#FFD910"/>
<path d="M81.1842 10.6729C82.3519 11.8039 81.4664 13.6011 79.8408 13.6011H19.7604C18.1348 13.6011 17.2493 11.8038 18.417 10.6729C24.9058 4.38851 36.5345 0.199951 49.8006 0.199951C63.0667 0.199951 74.6954 4.38851 81.1842 10.6729Z" stroke="white"/>
<ellipse cx="23.5" cy="79" rx="5.5" ry="5" fill="white"/>
<ellipse cx="77.5" cy="79" rx="5.5" ry="5" fill="white"/>
</svg>