<svg width="86" height="86" viewBox="0 0 86 86" fill="none" xmlns="http://www.w3.org/2000/svg">
<circle cx="43" cy="43" r="43" fill="#FFD910"/>
<rect width="46.3652" height="59.0783" transform="translate(20.1913 13.4608)" fill="#FFD910"/>
<path d="M43.3739 48.4956C49.7756 48.4956 54.9652 43.1133 54.9652 36.4739C54.9652 29.8345 49.7756 24.4521 43.3739 24.4521C36.9722 24.4521 31.7826 29.8345 31.7826 36.4739C31.7826 43.1133 36.9722 48.4956 43.3739 48.4956Z" fill="white" stroke="#90CDC2" stroke-width="4"/>
<path d="M43.3738 48.4956C53.4262 48.4956 61.6828 55.4073 62.9759 64.3162C63.1372 65.4276 62.2225 66.3565 61.0994 66.3565H25.6484C24.5253 66.3565 23.6105 65.4276 23.7718 64.3162C25.0649 55.4073 33.3215 48.4956 43.3738 48.4956Z" fill="white" stroke="#90CDC2" stroke-width="4"/>
<path d="M36.5427 27.3779C35.8541 27.2941 35.2663 26.8499 34.9862 26.2153L33.0217 21.7639C32.4382 20.4419 33.4063 18.9564 34.8514 18.9564H51.3747C52.7773 18.9564 53.7442 20.3627 53.2421 21.6724L51.5335 26.1293C51.2718 26.8119 50.6605 27.2971 49.9344 27.3827C48.2652 27.5794 45.161 27.9028 42.9217 27.8862C40.8878 27.8712 38.0759 27.5646 36.5427 27.3779Z" fill="white" stroke="#90CDC2" stroke-width="4"/>
<path d="M45.4194 23.0546H43.3888V25.139H42.6672V23.0546H40.6465V22.4002H42.6672V20.3303H43.3888V22.4002H45.4194V23.0546Z" fill="#90CDC2"/>
</svg>
