<svg width="138" height="131" viewBox="0 0 138 131" fill="none" xmlns="http://www.w3.org/2000/svg">
<path d="M136 1.74512H3.5867C2.48213 1.74512 1.5867 2.64055 1.5867 3.74512V128.089C1.5867 129.194 2.48214 130.089 3.58671 130.089H136C137.104 130.089 138 129.194 138 128.089V3.74512C138 2.64055 137.104 1.74512 136 1.74512Z" fill="#FFD910"/>
<path d="M42.5673 76.7643C50.5507 76.7643 57.0226 70.3136 57.0226 62.3562C57.0226 54.3988 50.5507 47.948 42.5673 47.948C34.5839 47.948 28.112 54.3988 28.112 62.3562C28.112 70.3136 34.5839 76.7643 42.5673 76.7643Z" fill="white" stroke="#90CDC2"/>
<path d="M69.12 107.764H16.5715C18.8494 91.1556 29.9339 78.9475 42.8459 78.9475C55.7579 78.9475 66.8423 91.1556 69.12 107.764Z" fill="white" stroke="#90CDC2"/>
<path d="M97.5923 64.8415C105.576 64.8415 112.048 58.3907 112.048 50.4333C112.048 42.4759 105.576 36.0251 97.5923 36.0251C89.6089 36.0251 83.137 42.4759 83.137 50.4333C83.137 58.3907 89.6089 64.8415 97.5923 64.8415Z" fill="white" stroke="#90CDC2"/>
<path d="M124.19 107.764H71.5517C72.6235 96.2533 75.8967 86.1465 80.5118 78.8775C85.2974 71.3402 91.3994 67.0244 97.8709 67.0244C104.342 67.0244 110.444 71.3402 115.23 78.8775C119.845 86.1465 123.118 96.2533 124.19 107.764Z" fill="white" stroke="#90CDC2"/>
<path d="M84.3651 77.0267C84.3651 83.8189 78.5548 89.4132 71.2759 89.4132C63.9969 89.4132 58.1867 83.8189 58.1867 77.0267C58.1867 70.2344 63.9969 64.6403 71.2759 64.6403C78.5548 64.6403 84.3651 70.2344 84.3651 77.0267Z" fill="white" stroke="#90CDC2"/>
<path d="M94.7799 108.075H47.7716C50.0086 98.7595 59.589 91.5964 71.2757 91.5964C82.9627 91.5964 92.5432 98.7595 94.7799 108.075Z" fill="white" stroke="#90CDC2"/>
</svg>