<svg width="178" height="100" viewBox="0 0 178 100" fill="none" xmlns="http://www.w3.org/2000/svg">
<path d="M67.9536 68.2699L67.9471 68.2384L67.9388 68.2075L68 68.5001C67.9536 68.2699 67.9388 68.2075 67.9388 68.2075L67.9384 68.206L67.9377 68.2033L67.9352 68.195L67.9272 68.1652L67.8962 68.0569C67.8691 67.9633 67.8291 67.8286 67.7767 67.6584C67.6713 67.3182 67.5145 66.8354 67.3063 66.2575C66.8912 65.1047 66.2663 63.5577 65.4309 62.0028C64.5999 60.4567 63.5327 58.8494 62.2135 57.6169C60.8915 56.3822 59.2282 55.4456 57.2397 55.4533C55.251 55.4607 53.626 56.4092 52.3584 57.6571C51.0963 58.8994 50.1081 60.5122 49.3552 62.0575C48.5973 63.6126 48.0501 65.1575 47.6928 66.3075C47.5138 66.8841 47.3812 67.3658 47.2929 67.7052C47.2487 67.8752 47.2155 68.0094 47.1933 68.1028L47.1677 68.2111L47.1608 68.2409L47.159 68.2492L47.1583 68.252C47.1583 68.252 47.1805 68.157 47.1933 68.1028L47.1581 68.2535L47.1572 68.2577L44.7683 79.2333C44.0966 82.3196 39.8354 82.6305 38.6677 79.7858C35.1029 71.1009 30.715 59.612 28.561 50.8941C26.5736 42.8513 25.3683 35.4218 25.6933 29.4371C26.0196 23.4313 27.8646 19.1571 31.6642 16.998C35.6258 14.747 39.4429 14.6987 43.6197 15.2786C44.9652 15.4653 46.3022 15.7093 47.6937 15.9633C48.5054 16.1115 49.3359 16.2631 50.1976 16.4087C52.4972 16.7972 54.9271 17.1245 57.5037 17.1491C61.4464 17.1868 64.7015 16.584 67.5901 16.0492C68.6307 15.8565 69.6239 15.6726 70.5845 15.5306C74.2186 14.9935 77.6993 14.97 82.3945 17.0493C88.4228 19.7189 89.963 26.2482 89.5342 33.4275C89.1105 40.5169 86.7851 47.6786 85.7606 50.8228C83.0745 59.065 79.2861 69.5377 76.1858 77.9069C75.0642 80.9345 70.4851 80.6288 69.8325 77.4422L67.9536 68.2699Z" fill="white"/>
<path d="M35.5542 1.02917L36.0602 2.50053L36.136 2.72072H36.38H38.0135L36.6931 3.6273L36.4947 3.76366L36.5707 3.98481L37.0756 5.45368L35.7516 4.54462L35.5542 4.40919L35.3571 4.54462L34.0331 5.45368L34.538 3.98481L34.614 3.76366L34.4155 3.6273L33.0952 2.72072H34.7286H34.9727L35.0485 2.50053L35.5542 1.02917Z" fill="white" stroke="white" stroke-width="0.3"/>
<path d="M3.67794 17.2489L4.18384 18.7203L4.25953 18.9405H4.50369H6.13721L4.81677 19.847L4.61815 19.9834L4.69418 20.2045L5.19922 21.6733L3.87518 20.7643L3.67794 20.6289L3.48068 20.7643L2.15664 21.6733L2.66168 20.2045L2.73771 19.9834L2.53908 19.847L1.21866 18.9405H2.85219H3.09632L3.17202 18.7203L3.67794 17.2489Z" fill="white" stroke="white" stroke-width="0.3"/>
<path d="M7.16654 37.4404L7.67244 38.9117L7.74813 39.1319H7.99229H9.62581L8.30537 40.0385L8.10674 40.1749L8.18278 40.396L8.68782 41.8649L7.36377 40.956L7.16654 40.8204L6.96928 40.956L5.64523 41.8649L6.15028 40.396L6.22631 40.1749L6.02768 40.0385L4.70724 39.1319H6.34079H6.58492L6.66062 38.9117L7.16654 37.4404Z" fill="white" stroke="white" stroke-width="0.3"/>
<path d="M9.47107 15.0611C9.47107 15.5235 9.07404 15.9005 8.58153 15.9005C8.08902 15.9005 7.69197 15.5235 7.69197 15.0611C7.69197 14.5986 8.08902 14.2217 8.58153 14.2217C9.07404 14.2217 9.47107 14.5986 9.47107 15.0611Z" fill="white" stroke="white" stroke-width="0.3"/>
<path d="M16.8277 3.47525C16.8277 3.93767 16.4307 4.31463 15.9382 4.31463C15.4457 4.31463 15.0486 3.93767 15.0486 3.47525C15.0486 3.01282 15.4457 2.63586 15.9382 2.63586C16.4307 2.63586 16.8277 3.01282 16.8277 3.47525Z" fill="white" stroke="white" stroke-width="0.3"/>
<path d="M12.9609 17.9563C10.0282 25.424 10.2304 35.795 15.5451 47.5205L15.4419 47.5636C10.1089 35.8181 9.90322 25.4308 12.8409 17.9504C15.7469 10.5505 21.7425 5.97124 28.9236 5.76804V5.83196C21.833 6.03514 15.8659 10.5592 12.9609 17.9563Z" fill="#FFD910" stroke="white"/>
<path d="M118.56 34.46C118.672 33.676 118.888 32.984 119.208 32.384C119.528 31.776 119.932 31.268 120.42 30.86C120.916 30.452 121.48 30.144 122.112 29.936C122.752 29.72 123.44 29.612 124.176 29.612C124.904 29.612 125.576 29.716 126.192 29.924C126.808 30.132 127.336 30.428 127.776 30.812C128.224 31.196 128.572 31.66 128.82 32.204C129.068 32.748 129.192 33.352 129.192 34.016C129.192 34.56 129.12 35.048 128.976 35.48C128.84 35.904 128.64 36.276 128.376 36.596C128.12 36.916 127.808 37.188 127.44 37.412C127.072 37.636 126.66 37.82 126.204 37.964C127.324 38.252 128.164 38.748 128.724 39.452C129.292 40.148 129.576 41.02 129.576 42.068C129.576 42.86 129.424 43.572 129.12 44.204C128.824 44.836 128.416 45.376 127.896 45.824C127.376 46.264 126.768 46.604 126.072 46.844C125.384 47.076 124.644 47.192 123.852 47.192C122.94 47.192 122.16 47.08 121.512 46.856C120.864 46.624 120.316 46.308 119.868 45.908C119.42 45.508 119.052 45.036 118.764 44.492C118.476 43.94 118.232 43.344 118.032 42.704L118.956 42.32C119.196 42.216 119.428 42.188 119.652 42.236C119.884 42.284 120.052 42.416 120.156 42.632C120.26 42.856 120.388 43.124 120.54 43.436C120.7 43.748 120.916 44.048 121.188 44.336C121.46 44.624 121.804 44.868 122.22 45.068C122.644 45.268 123.18 45.368 123.828 45.368C124.428 45.368 124.952 45.272 125.4 45.08C125.856 44.88 126.232 44.624 126.528 44.312C126.832 44 127.06 43.652 127.212 43.268C127.364 42.884 127.44 42.504 127.44 42.128C127.44 41.664 127.38 41.24 127.26 40.856C127.14 40.472 126.916 40.14 126.588 39.86C126.26 39.58 125.808 39.36 125.232 39.2C124.664 39.04 123.932 38.96 123.036 38.96V37.412C123.772 37.404 124.396 37.324 124.908 37.172C125.428 37.02 125.848 36.812 126.168 36.548C126.496 36.284 126.732 35.968 126.876 35.6C127.028 35.232 127.104 34.824 127.104 34.376C127.104 33.88 127.024 33.448 126.864 33.08C126.712 32.712 126.5 32.408 126.228 32.168C125.956 31.928 125.632 31.748 125.256 31.628C124.888 31.508 124.488 31.448 124.056 31.448C123.624 31.448 123.22 31.512 122.844 31.64C122.476 31.768 122.148 31.948 121.86 32.18C121.58 32.404 121.344 32.672 121.152 32.984C120.96 33.296 120.824 33.64 120.744 34.016C120.64 34.296 120.508 34.484 120.348 34.58C120.196 34.668 119.972 34.692 119.676 34.652L118.56 34.46ZM142.766 44.972C142.998 44.972 143.182 45.04 143.318 45.176C143.454 45.312 143.522 45.488 143.522 45.704V47H132.05V46.268C132.05 46.116 132.082 45.96 132.146 45.8C132.21 45.64 132.31 45.492 132.446 45.356L137.954 39.824C138.41 39.36 138.826 38.916 139.202 38.492C139.578 38.06 139.898 37.628 140.162 37.196C140.426 36.764 140.63 36.328 140.774 35.888C140.918 35.44 140.99 34.964 140.99 34.46C140.99 33.956 140.91 33.516 140.75 33.14C140.59 32.756 140.37 32.44 140.09 32.192C139.818 31.944 139.494 31.76 139.118 31.64C138.742 31.512 138.338 31.448 137.906 31.448C137.466 31.448 137.062 31.512 136.694 31.64C136.326 31.768 135.998 31.948 135.71 32.18C135.43 32.404 135.194 32.672 135.002 32.984C134.81 33.296 134.674 33.64 134.594 34.016C134.498 34.296 134.366 34.484 134.198 34.58C134.038 34.668 133.81 34.692 133.514 34.652L132.398 34.46C132.51 33.676 132.726 32.984 133.046 32.384C133.374 31.776 133.782 31.268 134.27 30.86C134.766 30.452 135.33 30.144 135.962 29.936C136.594 29.72 137.278 29.612 138.014 29.612C138.742 29.612 139.422 29.72 140.054 29.936C140.686 30.152 141.234 30.468 141.698 30.884C142.162 31.292 142.526 31.792 142.79 32.384C143.054 32.976 143.186 33.648 143.186 34.4C143.186 35.04 143.09 35.636 142.898 36.188C142.706 36.732 142.446 37.252 142.118 37.748C141.79 38.244 141.41 38.728 140.978 39.2C140.554 39.672 140.102 40.148 139.622 40.628L135.086 45.26C135.406 45.172 135.73 45.104 136.058 45.056C136.386 45 136.702 44.972 137.006 44.972H142.766Z" fill="white"/>
<path d="M119.08 62.756C119.08 62.908 119.052 63.056 118.996 63.2C118.948 63.344 118.88 63.468 118.792 63.572L112.204 72.332H118.852V74H109.696V73.112C109.696 73.008 109.72 72.888 109.768 72.752C109.816 72.608 109.888 72.472 109.984 72.344L116.608 63.524H110.068V61.844H119.08V62.756ZM131.54 61.844V74H130.268C129.964 74 129.772 73.852 129.692 73.556L129.524 72.248C128.996 72.832 128.404 73.304 127.748 73.664C127.092 74.016 126.34 74.192 125.492 74.192C124.828 74.192 124.24 74.084 123.728 73.868C123.224 73.644 122.8 73.332 122.456 72.932C122.112 72.532 121.852 72.048 121.676 71.48C121.508 70.912 121.424 70.284 121.424 69.596V61.844H123.56V69.596C123.56 70.516 123.768 71.228 124.184 71.732C124.608 72.236 125.252 72.488 126.116 72.488C126.748 72.488 127.336 72.34 127.88 72.044C128.432 71.74 128.94 71.324 129.404 70.796V61.844H131.54ZM137.074 71.072C137.466 71.6 137.894 71.972 138.358 72.188C138.83 72.404 139.346 72.512 139.906 72.512C141.05 72.512 141.926 72.108 142.534 71.3C143.142 70.492 143.446 69.288 143.446 67.688C143.446 66.2 143.174 65.108 142.63 64.412C142.094 63.708 141.326 63.356 140.326 63.356C139.63 63.356 139.022 63.516 138.502 63.836C137.99 64.156 137.514 64.608 137.074 65.192V71.072ZM137.074 63.596C137.586 63.004 138.162 62.532 138.802 62.18C139.45 61.828 140.194 61.652 141.034 61.652C141.746 61.652 142.386 61.788 142.954 62.06C143.53 62.332 144.018 62.728 144.418 63.248C144.818 63.76 145.122 64.384 145.33 65.12C145.546 65.856 145.654 66.684 145.654 67.604C145.654 68.588 145.534 69.484 145.294 70.292C145.054 71.1 144.706 71.792 144.25 72.368C143.802 72.936 143.254 73.38 142.606 73.7C141.958 74.012 141.23 74.168 140.422 74.168C139.622 74.168 138.946 74.02 138.394 73.724C137.85 73.42 137.374 72.992 136.966 72.44L136.858 73.544C136.794 73.848 136.61 74 136.306 74H134.926V56.324H137.074V63.596ZM158.352 61.844V74H157.08C156.776 74 156.584 73.852 156.504 73.556L156.336 72.248C155.808 72.832 155.216 73.304 154.56 73.664C153.904 74.016 153.152 74.192 152.304 74.192C151.64 74.192 151.052 74.084 150.54 73.868C150.036 73.644 149.612 73.332 149.268 72.932C148.924 72.532 148.664 72.048 148.488 71.48C148.32 70.912 148.236 70.284 148.236 69.596V61.844H150.372V69.596C150.372 70.516 150.58 71.228 150.996 71.732C151.42 72.236 152.064 72.488 152.928 72.488C153.56 72.488 154.148 72.34 154.692 72.044C155.244 71.74 155.752 71.324 156.216 70.796V61.844H158.352ZM150.984 58.22C150.984 57.884 151.048 57.58 151.176 57.308C151.304 57.036 151.476 56.8 151.692 56.6C151.916 56.4 152.172 56.248 152.46 56.144C152.748 56.032 153.052 55.976 153.372 55.976C153.7 55.976 154.008 56.032 154.296 56.144C154.592 56.248 154.852 56.4 155.076 56.6C155.3 56.8 155.476 57.036 155.604 57.308C155.732 57.58 155.796 57.884 155.796 58.22C155.796 58.548 155.732 58.848 155.604 59.12C155.476 59.392 155.3 59.624 155.076 59.816C154.852 60.008 154.592 60.16 154.296 60.272C154.008 60.376 153.7 60.428 153.372 60.428C153.052 60.428 152.748 60.376 152.46 60.272C152.172 60.16 151.916 60.008 151.692 59.816C151.476 59.624 151.304 59.392 151.176 59.12C151.048 58.848 150.984 58.548 150.984 58.22ZM152.184 58.22C152.184 58.572 152.292 58.86 152.508 59.084C152.724 59.308 153.02 59.42 153.396 59.42C153.756 59.42 154.044 59.308 154.26 59.084C154.484 58.86 154.596 58.572 154.596 58.22C154.596 57.86 154.484 57.568 154.26 57.344C154.044 57.12 153.756 57.008 153.396 57.008C153.02 57.008 152.724 57.12 152.508 57.344C152.292 57.568 152.184 57.86 152.184 58.22Z" fill="white"/>
</svg>