<svg width="138" height="129" viewBox="0 0 138 129" fill="none" xmlns="http://www.w3.org/2000/svg">
<path d="M136 0.731812H2.29193C1.18736 0.731812 0.291931 1.62724 0.291931 2.73181V126.096C0.291931 127.201 1.18736 128.096 2.29193 128.096H136C137.105 128.096 138 127.201 138 126.096V2.73181C138 1.62724 137.105 0.731812 136 0.731812Z" fill="#FFD910"/>
<path d="M31.0388 72.8179L30.5616 71.5194L29.3876 72.2821L28.117 73.1076C26.2563 74.3164 23.7478 73.8185 22.5141 71.9952L16.1132 62.5364C14.8795 60.7134 15.3877 58.2553 17.2484 57.0465L84.8235 13.1438C86.6842 11.935 89.1927 12.4329 90.4264 14.2559L96.8273 23.715C98.0612 25.538 97.5528 27.9959 95.6923 29.2049L95.3657 29.417L94.2512 30.1409L95.1861 31.0775C95.6649 31.557 96.1056 32.0885 96.4996 32.6709C99.7911 37.5363 98.5059 43.9976 93.7026 47.1173C88.8993 50.2371 82.3254 48.8806 79.0339 44.0151L78.1125 44.6138L79.0339 44.0151C78.6405 43.4336 78.3128 42.8295 78.0486 42.2116L77.5323 41.0032L76.4178 41.7271L71.6019 44.856L70.4277 45.6189L71.463 46.5551C72.2341 47.2521 72.9399 48.0581 73.5548 48.967C77.2645 54.4506 76.1363 61.3131 71.4126 64.3813C66.6886 67.4496 59.7988 65.7949 56.0891 60.3115C55.4749 59.4032 54.9924 58.4531 54.6374 57.4866L54.1605 56.1874L52.9861 56.9505L48.005 60.1867L46.831 60.9493L47.8659 61.8856C48.6358 62.5821 49.3408 63.3873 49.9551 64.2953C53.6647 69.7789 52.5365 76.6414 47.8128 79.7094C43.0889 82.7776 36.199 81.1232 32.4894 75.6396C31.8758 74.7324 31.3937 73.7834 31.0388 72.8179Z" fill="white" stroke="#90CDC2"/>
<path d="M108.731 96.0514L108.401 97.3932L109.809 97.3886L111.334 97.3839C113.566 97.3767 115.382 99.1443 115.389 101.332L115.427 112.681C115.434 114.868 113.63 116.647 111.398 116.655L30.3179 116.913C28.0854 116.92 26.2697 115.153 26.2624 112.965L26.2246 101.616C26.2173 99.4286 28.0213 97.6495 30.2538 97.6424L30.6461 97.6413L31.983 97.6369L31.7276 96.351C31.5969 95.6926 31.5273 95.0109 31.525 94.3124C31.5065 88.4752 36.2058 83.7709 41.9689 83.7534C47.7316 83.7356 52.4609 88.4108 52.4795 94.2478C52.4817 94.9457 52.4164 95.6267 52.2902 96.2854L52.0432 97.573L53.3803 97.5687L59.1586 97.5503L60.5674 97.5457L60.2282 96.2059C59.9754 95.2081 59.8381 94.1547 59.8348 93.0642C59.8138 86.4853 64.6076 81.3616 70.2748 81.344C75.9421 81.3267 80.7684 86.421 80.7892 92.9998C80.7928 94.0894 80.6623 95.1429 80.4164 96.1415L80.0858 97.4835L81.4948 97.479L87.4717 97.4599L88.88 97.4554L88.541 96.1159C88.2889 95.1191 88.1521 94.0667 88.1485 92.9773C88.1277 86.3987 92.9213 81.2747 98.5886 81.2574C104.256 81.2398 109.082 86.3341 109.103 92.9129C109.106 94.0015 108.976 95.0538 108.731 96.0514Z" fill="white" stroke="#90CDC2"/>
</svg>