<svg width="179" height="100" viewBox="0 0 179 100" fill="none" xmlns="http://www.w3.org/2000/svg">
<path d="M68.9537 68.2699L68.9472 68.2384L68.9389 68.2075L69.0001 68.5001C68.9537 68.2699 68.9389 68.2075 68.9389 68.2075L68.9384 68.206L68.9378 68.2033L68.9353 68.195L68.9272 68.1652L68.8963 68.0569C68.8691 67.9633 68.8292 67.8286 68.7767 67.6584C68.6713 67.3181 68.5145 66.8354 68.3064 66.2575C67.8912 65.1047 67.2664 63.5577 66.4309 62.0028C65.5999 60.4567 64.5328 58.8494 63.2135 57.6169C61.8916 56.3822 60.2283 55.4456 58.2398 55.4533C56.251 55.4607 54.6261 56.4092 53.3584 57.6571C52.0964 58.8994 51.1082 60.5122 50.3552 62.0575C49.5974 63.6126 49.0501 65.1575 48.6928 66.3075C48.5139 66.8841 48.3813 67.3658 48.2929 67.7052C48.2488 67.8752 48.2156 68.0094 48.1933 68.1028L48.1678 68.2111L48.1608 68.2409L48.159 68.2492L48.1584 68.252C48.1584 68.252 48.1806 68.157 48.1933 68.1028L48.1581 68.2535L48.1572 68.2577L45.7684 79.2333C45.0966 82.3196 40.8354 82.6305 39.6678 79.7858C36.103 71.1009 31.7151 59.612 29.561 50.8941C27.5736 42.8513 26.3683 35.4218 26.6933 29.4371C27.0197 23.4313 28.8646 19.1571 32.6643 16.998C36.6258 14.747 40.4429 14.6987 44.6198 15.2786C45.9653 15.4653 47.3023 15.7093 48.6937 15.9633C49.5054 16.1115 50.336 16.2631 51.1977 16.4087C53.4973 16.7972 55.9272 17.1245 58.5038 17.1491C62.4465 17.1868 65.7015 16.584 68.5901 16.0492C69.6308 15.8565 70.6239 15.6726 71.5846 15.5306C75.2187 14.9935 78.6994 14.97 83.3946 17.0493C89.4229 19.7189 90.9631 26.2482 90.5342 33.4275C90.1106 40.5169 87.7852 47.6786 86.7606 50.8228C84.0746 59.065 80.2862 69.5377 77.1859 77.9069C76.0642 80.9345 71.4852 80.6288 70.8325 77.4422L68.9537 68.2699Z" fill="white"/>
<path d="M68.9389 68.2075L68.9472 68.2384L68.9537 68.2699L70.8325 77.4422C71.4852 80.6288 76.0642 80.9345 77.1859 77.9069C80.2862 69.5377 84.0746 59.065 86.7606 50.8228C87.7852 47.6786 90.1106 40.5169 90.5342 33.4275C90.9631 26.2482 89.4229 19.7189 83.3946 17.0493C78.6994 14.97 75.2187 14.9935 71.5846 15.5306C70.6239 15.6726 69.6308 15.8565 68.5901 16.0492C65.7015 16.584 62.4465 17.1868 58.5038 17.1491C55.9272 17.1245 53.4973 16.7972 51.1977 16.4087C50.336 16.2631 49.5054 16.1115 48.6937 15.9633C47.3023 15.7093 45.9653 15.4653 44.6198 15.2786C40.4429 14.6987 36.6258 14.747 32.6643 16.998C28.8646 19.1571 27.0197 23.4313 26.6933 29.4371C26.3683 35.4218 27.5736 42.8513 29.561 50.8941C31.7151 59.612 36.103 71.1009 39.6678 79.7858C40.8354 82.6305 45.0966 82.3196 45.7684 79.2333L48.1572 68.2577L48.1581 68.2535L48.1933 68.1028M68.9389 68.2075L69.0001 68.5001C68.9537 68.2699 68.9389 68.2075 68.9389 68.2075ZM68.9389 68.2075L68.9384 68.206L68.9378 68.2033L68.9353 68.195L68.9272 68.1652L68.8963 68.0569C68.8691 67.9633 68.8292 67.8286 68.7767 67.6584C68.6713 67.3182 68.5145 66.8354 68.3064 66.2575C67.8912 65.1047 67.2664 63.5577 66.4309 62.0028C65.5999 60.4567 64.5328 58.8494 63.2135 57.6169C61.8916 56.3822 60.2283 55.4456 58.2398 55.4533C56.251 55.4607 54.6261 56.4092 53.3584 57.6571C52.0964 58.8994 51.1082 60.5122 50.3552 62.0575C49.5974 63.6126 49.0501 65.1575 48.6928 66.3075C48.5139 66.8841 48.3813 67.3658 48.2929 67.7052C48.2488 67.8752 48.2156 68.0094 48.1933 68.1028M48.1933 68.1028L48.1678 68.2111L48.1608 68.2409L48.159 68.2492L48.1584 68.252C48.1584 68.252 48.1806 68.157 48.1933 68.1028Z" stroke="#1CBABA"/>
<path d="M35.5543 1.02917L36.0603 2.50053L36.1361 2.72072H36.3801H38.0136L36.6932 3.6273L36.4947 3.76366L36.5708 3.98481L37.0756 5.45368L35.7517 4.54462L35.5543 4.40919L35.3571 4.54462L34.0332 5.45368L34.538 3.98481L34.6141 3.76366L34.4156 3.6273L33.0952 2.72072H34.7287H34.9727L35.0485 2.50053L35.5543 1.02917Z" fill="white" stroke="#1CBABA" stroke-width="0.3"/>
<path d="M3.67803 17.2489L4.18393 18.7203L4.25963 18.9405H4.50378H6.1373L4.81686 19.847L4.61824 19.9834L4.69427 20.2045L5.19932 21.6733L3.87527 20.7643L3.67803 20.6289L3.48077 20.7643L2.15673 21.6733L2.66177 20.2045L2.7378 19.9834L2.53918 19.847L1.21875 18.9405H2.85228H3.09641L3.17211 18.7203L3.67803 17.2489Z" fill="white" stroke="#1CBABA" stroke-width="0.3"/>
<path d="M7.16657 37.4404L7.67247 38.9117L7.74816 39.1319H7.99232H9.62584L8.3054 40.0385L8.10677 40.1749L8.18281 40.396L8.68785 41.8649L7.36381 40.956L7.16657 40.8204L6.96931 40.956L5.64526 41.8649L6.15031 40.396L6.22634 40.1749L6.02771 40.0385L4.70728 39.1319H6.34082H6.58495L6.66065 38.9117L7.16657 37.4404Z" fill="white" stroke="#1CBABA" stroke-width="0.3"/>
<path d="M9.471 15.0611C9.471 15.5235 9.07397 15.9005 8.58146 15.9005C8.08895 15.9005 7.69189 15.5235 7.69189 15.0611C7.69189 14.5986 8.08895 14.2217 8.58146 14.2217C9.07397 14.2217 9.471 14.5986 9.471 15.0611Z" fill="white" stroke="#1CBABA" stroke-width="0.3"/>
<path d="M16.8277 3.47525C16.8277 3.93767 16.4307 4.31463 15.9381 4.31463C15.4456 4.31463 15.0486 3.93767 15.0486 3.47525C15.0486 3.01282 15.4456 2.63586 15.9381 2.63586C16.4307 2.63586 16.8277 3.01282 16.8277 3.47525Z" fill="white" stroke="#1CBABA" stroke-width="0.3"/>
<path d="M29.4236 6.32482C29.7331 6.32482 29.9843 6.08667 29.9843 5.7929C29.9843 5.49914 29.7331 5.26099 29.4236 5.26099V6.32482ZM15.1887 48.2109C15.3134 48.4798 15.6443 48.6019 15.9277 48.4836C16.2112 48.3655 16.34 48.0515 16.2153 47.7828L15.1887 48.2109ZM29.4236 5.26099C21.7865 5.26099 15.4125 10.0341 12.3754 17.7676C9.34017 25.4966 9.61784 36.1934 15.1887 48.2109L16.2153 47.7828C10.733 35.9562 10.5155 25.5511 13.4263 18.1391C16.3353 10.7317 22.3487 6.32482 29.4236 6.32482V5.26099Z" fill="#1CBABA"/>
<path d="M122.56 33.46C122.672 32.676 122.888 31.984 123.208 31.384C123.528 30.776 123.932 30.268 124.42 29.86C124.916 29.452 125.48 29.144 126.112 28.936C126.752 28.72 127.44 28.612 128.176 28.612C128.904 28.612 129.576 28.716 130.192 28.924C130.808 29.132 131.336 29.428 131.776 29.812C132.224 30.196 132.572 30.66 132.82 31.204C133.068 31.748 133.192 32.352 133.192 33.016C133.192 33.56 133.12 34.048 132.976 34.48C132.84 34.904 132.64 35.276 132.376 35.596C132.12 35.916 131.808 36.188 131.44 36.412C131.072 36.636 130.66 36.82 130.204 36.964C131.324 37.252 132.164 37.748 132.724 38.452C133.292 39.148 133.576 40.02 133.576 41.068C133.576 41.86 133.424 42.572 133.12 43.204C132.824 43.836 132.416 44.376 131.896 44.824C131.376 45.264 130.768 45.604 130.072 45.844C129.384 46.076 128.644 46.192 127.852 46.192C126.94 46.192 126.16 46.08 125.512 45.856C124.864 45.624 124.316 45.308 123.868 44.908C123.42 44.508 123.052 44.036 122.764 43.492C122.476 42.94 122.232 42.344 122.032 41.704L122.956 41.32C123.196 41.216 123.428 41.188 123.652 41.236C123.884 41.284 124.052 41.416 124.156 41.632C124.26 41.856 124.388 42.124 124.54 42.436C124.7 42.748 124.916 43.048 125.188 43.336C125.46 43.624 125.804 43.868 126.22 44.068C126.644 44.268 127.18 44.368 127.828 44.368C128.428 44.368 128.952 44.272 129.4 44.08C129.856 43.88 130.232 43.624 130.528 43.312C130.832 43 131.06 42.652 131.212 42.268C131.364 41.884 131.44 41.504 131.44 41.128C131.44 40.664 131.38 40.24 131.26 39.856C131.14 39.472 130.916 39.14 130.588 38.86C130.26 38.58 129.808 38.36 129.232 38.2C128.664 38.04 127.932 37.96 127.036 37.96V36.412C127.772 36.404 128.396 36.324 128.908 36.172C129.428 36.02 129.848 35.812 130.168 35.548C130.496 35.284 130.732 34.968 130.876 34.6C131.028 34.232 131.104 33.824 131.104 33.376C131.104 32.88 131.024 32.448 130.864 32.08C130.712 31.712 130.5 31.408 130.228 31.168C129.956 30.928 129.632 30.748 129.256 30.628C128.888 30.508 128.488 30.448 128.056 30.448C127.624 30.448 127.22 30.512 126.844 30.64C126.476 30.768 126.148 30.948 125.86 31.18C125.58 31.404 125.344 31.672 125.152 31.984C124.96 32.296 124.824 32.64 124.744 33.016C124.64 33.296 124.508 33.484 124.348 33.58C124.196 33.668 123.972 33.692 123.676 33.652L122.56 33.46ZM146.766 43.972C146.998 43.972 147.182 44.04 147.318 44.176C147.454 44.312 147.522 44.488 147.522 44.704V46H136.05V45.268C136.05 45.116 136.082 44.96 136.146 44.8C136.21 44.64 136.31 44.492 136.446 44.356L141.954 38.824C142.41 38.36 142.826 37.916 143.202 37.492C143.578 37.06 143.898 36.628 144.162 36.196C144.426 35.764 144.63 35.328 144.774 34.888C144.918 34.44 144.99 33.964 144.99 33.46C144.99 32.956 144.91 32.516 144.75 32.14C144.59 31.756 144.37 31.44 144.09 31.192C143.818 30.944 143.494 30.76 143.118 30.64C142.742 30.512 142.338 30.448 141.906 30.448C141.466 30.448 141.062 30.512 140.694 30.64C140.326 30.768 139.998 30.948 139.71 31.18C139.43 31.404 139.194 31.672 139.002 31.984C138.81 32.296 138.674 32.64 138.594 33.016C138.498 33.296 138.366 33.484 138.198 33.58C138.038 33.668 137.81 33.692 137.514 33.652L136.398 33.46C136.51 32.676 136.726 31.984 137.046 31.384C137.374 30.776 137.782 30.268 138.27 29.86C138.766 29.452 139.33 29.144 139.962 28.936C140.594 28.72 141.278 28.612 142.014 28.612C142.742 28.612 143.422 28.72 144.054 28.936C144.686 29.152 145.234 29.468 145.698 29.884C146.162 30.292 146.526 30.792 146.79 31.384C147.054 31.976 147.186 32.648 147.186 33.4C147.186 34.04 147.09 34.636 146.898 35.188C146.706 35.732 146.446 36.252 146.118 36.748C145.79 37.244 145.41 37.728 144.978 38.2C144.554 38.672 144.102 39.148 143.622 39.628L139.086 44.26C139.406 44.172 139.73 44.104 140.058 44.056C140.386 44 140.702 43.972 141.006 43.972H146.766Z" fill="#1CBABA"/>
<path d="M120.08 62.756C120.08 62.908 120.052 63.056 119.996 63.2C119.948 63.344 119.88 63.468 119.792 63.572L113.204 72.332H119.852V74H110.696V73.112C110.696 73.008 110.72 72.888 110.768 72.752C110.816 72.608 110.888 72.472 110.984 72.344L117.608 63.524H111.068V61.844H120.08V62.756ZM132.54 61.844V74H131.268C130.964 74 130.772 73.852 130.692 73.556L130.524 72.248C129.996 72.832 129.404 73.304 128.748 73.664C128.092 74.016 127.34 74.192 126.492 74.192C125.828 74.192 125.24 74.084 124.728 73.868C124.224 73.644 123.8 73.332 123.456 72.932C123.112 72.532 122.852 72.048 122.676 71.48C122.508 70.912 122.424 70.284 122.424 69.596V61.844H124.56V69.596C124.56 70.516 124.768 71.228 125.184 71.732C125.608 72.236 126.252 72.488 127.116 72.488C127.748 72.488 128.336 72.34 128.88 72.044C129.432 71.74 129.94 71.324 130.404 70.796V61.844H132.54ZM138.074 71.072C138.466 71.6 138.894 71.972 139.358 72.188C139.83 72.404 140.346 72.512 140.906 72.512C142.05 72.512 142.926 72.108 143.534 71.3C144.142 70.492 144.446 69.288 144.446 67.688C144.446 66.2 144.174 65.108 143.63 64.412C143.094 63.708 142.326 63.356 141.326 63.356C140.63 63.356 140.022 63.516 139.502 63.836C138.99 64.156 138.514 64.608 138.074 65.192V71.072ZM138.074 63.596C138.586 63.004 139.162 62.532 139.802 62.18C140.45 61.828 141.194 61.652 142.034 61.652C142.746 61.652 143.386 61.788 143.954 62.06C144.53 62.332 145.018 62.728 145.418 63.248C145.818 63.76 146.122 64.384 146.33 65.12C146.546 65.856 146.654 66.684 146.654 67.604C146.654 68.588 146.534 69.484 146.294 70.292C146.054 71.1 145.706 71.792 145.25 72.368C144.802 72.936 144.254 73.38 143.606 73.7C142.958 74.012 142.23 74.168 141.422 74.168C140.622 74.168 139.946 74.02 139.394 73.724C138.85 73.42 138.374 72.992 137.966 72.44L137.858 73.544C137.794 73.848 137.61 74 137.306 74H135.926V56.324H138.074V63.596ZM159.352 61.844V74H158.08C157.776 74 157.584 73.852 157.504 73.556L157.336 72.248C156.808 72.832 156.216 73.304 155.56 73.664C154.904 74.016 154.152 74.192 153.304 74.192C152.64 74.192 152.052 74.084 151.54 73.868C151.036 73.644 150.612 73.332 150.268 72.932C149.924 72.532 149.664 72.048 149.488 71.48C149.32 70.912 149.236 70.284 149.236 69.596V61.844H151.372V69.596C151.372 70.516 151.58 71.228 151.996 71.732C152.42 72.236 153.064 72.488 153.928 72.488C154.56 72.488 155.148 72.34 155.692 72.044C156.244 71.74 156.752 71.324 157.216 70.796V61.844H159.352ZM151.984 58.22C151.984 57.884 152.048 57.58 152.176 57.308C152.304 57.036 152.476 56.8 152.692 56.6C152.916 56.4 153.172 56.248 153.46 56.144C153.748 56.032 154.052 55.976 154.372 55.976C154.7 55.976 155.008 56.032 155.296 56.144C155.592 56.248 155.852 56.4 156.076 56.6C156.3 56.8 156.476 57.036 156.604 57.308C156.732 57.58 156.796 57.884 156.796 58.22C156.796 58.548 156.732 58.848 156.604 59.12C156.476 59.392 156.3 59.624 156.076 59.816C155.852 60.008 155.592 60.16 155.296 60.272C155.008 60.376 154.7 60.428 154.372 60.428C154.052 60.428 153.748 60.376 153.46 60.272C153.172 60.16 152.916 60.008 152.692 59.816C152.476 59.624 152.304 59.392 152.176 59.12C152.048 58.848 151.984 58.548 151.984 58.22ZM153.184 58.22C153.184 58.572 153.292 58.86 153.508 59.084C153.724 59.308 154.02 59.42 154.396 59.42C154.756 59.42 155.044 59.308 155.26 59.084C155.484 58.86 155.596 58.572 155.596 58.22C155.596 57.86 155.484 57.568 155.26 57.344C155.044 57.12 154.756 57.008 154.396 57.008C154.02 57.008 153.724 57.12 153.508 57.344C153.292 57.568 153.184 57.86 153.184 58.22Z" fill="#1CBABA"/>
</svg>
