<svg width="76" height="70" viewBox="0 0 76 70" fill="none" xmlns="http://www.w3.org/2000/svg">
<path d="M56.875 57.2985L56.8696 57.2721L56.8627 57.2463L56.9139 57.4912C56.875 57.2985 56.8627 57.2463 56.8627 57.2463L56.8623 57.245L56.8617 57.2427L56.8596 57.2358L56.8529 57.2108L56.827 57.1202C56.8043 57.0418 56.7708 56.929 56.7269 56.7865C56.6386 56.5016 56.5074 56.0974 56.3331 55.6136C55.9855 54.6484 55.4623 53.3532 54.7628 52.0513C54.0671 50.7567 53.1736 49.411 52.069 48.3791C50.9622 47.3453 49.5696 46.5611 47.9046 46.5675C46.2395 46.5738 44.879 47.3679 43.8176 48.4127C42.7609 49.4529 41.9335 50.8032 41.3031 52.0971C40.6686 53.3991 40.2104 54.6926 39.9113 55.6555C39.7614 56.1382 39.6504 56.5415 39.5764 56.8257C39.5394 56.968 39.5117 57.0804 39.4931 57.1586L39.4717 57.2493L39.4658 57.2742L39.4643 57.2812L39.4638 57.2835C39.4638 57.2835 39.4824 57.204 39.4931 57.1586L39.4636 57.2848L39.4628 57.2883L37.4627 66.4778C36.9003 69.0619 33.3325 69.3222 32.3549 66.9404C29.3702 59.6688 25.6963 50.0495 23.8928 42.7503C22.2288 36.0163 21.2196 29.7958 21.4918 24.785C21.765 19.7566 23.3097 16.1779 26.491 14.3701C29.8079 12.4855 33.0039 12.445 36.501 12.9305C37.6276 13.0869 38.747 13.2912 39.912 13.5038C40.5916 13.6279 41.287 13.7548 42.0085 13.8767C43.9339 14.202 45.9683 14.476 48.1257 14.4967C51.4268 14.5282 54.1521 14.0235 56.5706 13.5757C57.442 13.4144 58.2735 13.2604 59.0778 13.1415C62.1205 12.6918 65.0348 12.6722 68.9659 14.4131C74.0133 16.6483 75.3028 22.115 74.9438 28.1261C74.589 34.0618 72.6421 40.058 71.7843 42.6906C69.5353 49.5915 66.3634 58.36 63.7676 65.3672C62.8285 67.9022 58.9946 67.6462 58.4481 64.9782L56.875 57.2985Z" fill="white"/>
<path d="M56.8627 57.2463L56.8696 57.2721L56.875 57.2985L58.4481 64.9782C58.9946 67.6462 62.8285 67.9022 63.7676 65.3673C66.3634 58.36 69.5353 49.5915 71.7843 42.6906C72.6421 40.058 74.589 34.0618 74.9438 28.1261C75.3028 22.115 74.0133 16.6483 68.9659 14.4131C65.0348 12.6722 62.1205 12.6918 59.0778 13.1415C58.2735 13.2604 57.442 13.4144 56.5706 13.5757C54.1521 14.0235 51.4268 14.5282 48.1257 14.4967C45.9683 14.476 43.9339 14.202 42.0085 13.8767C41.287 13.7548 40.5916 13.6279 39.912 13.5038C38.747 13.2912 37.6276 13.0869 36.501 12.9305C33.0039 12.445 29.8079 12.4855 26.491 14.3701C23.3097 16.1779 21.765 19.7566 21.4918 24.785C21.2196 29.7958 22.2288 36.0163 23.8928 42.7503C25.6963 50.0495 29.3702 59.6688 32.3549 66.9404C33.3325 69.3222 36.9003 69.0619 37.4627 66.4778L39.4628 57.2883L39.4636 57.2848L39.4931 57.1586M56.8627 57.2463L56.9139 57.4912C56.875 57.2985 56.8627 57.2463 56.8627 57.2463ZM56.8627 57.2463L56.8623 57.245L56.8617 57.2427L56.8597 57.2358L56.8529 57.2108L56.827 57.1202C56.8043 57.0418 56.7708 56.929 56.7269 56.7865C56.6386 56.5016 56.5074 56.0974 56.3331 55.6136C55.9855 54.6484 55.4623 53.3532 54.7628 52.0513C54.0671 50.7567 53.1736 49.411 52.069 48.3791C50.9622 47.3453 49.5696 46.5611 47.9046 46.5675C46.2395 46.5738 44.879 47.3679 43.8176 48.4127C42.7609 49.4529 41.9335 50.8032 41.3031 52.0971C40.6686 53.3991 40.2104 54.6926 39.9113 55.6555C39.7614 56.1382 39.6504 56.5415 39.5764 56.8257C39.5394 56.968 39.5117 57.0804 39.4931 57.1586M39.4931 57.1586L39.4717 57.2493L39.4658 57.2742L39.4643 57.2812L39.4638 57.2835C39.4638 57.2835 39.4824 57.204 39.4931 57.1586Z" stroke="#1CBABA" stroke-width="2"/>
<path d="M29.7481 1L30.1718 2.23192L30.2352 2.41628H30.4395H31.8072L30.7017 3.17533L30.5355 3.2895L30.5992 3.47466L31.0219 4.7045L29.9134 3.94337L29.7481 3.82998L29.583 3.94337L28.4745 4.7045L28.8972 3.47466L28.9609 3.2895L28.7947 3.17533L27.6892 2.41628H29.0569H29.2612L29.3247 2.23192L29.7481 1Z" fill="white" stroke="#1CBABA" stroke-width="0.3"/>
<path d="M3.05908 14.5803L3.48265 15.8122L3.54603 15.9966H3.75046H5.11815L4.01259 16.7557L3.84629 16.8698L3.90995 17.055L4.3328 18.2848L3.22422 17.5237L3.05908 17.4103L2.89392 17.5237L1.78534 18.2848L2.2082 17.055L2.27186 16.8698L2.10555 16.7557L1 15.9966H2.3677H2.57211L2.63549 15.8122L3.05908 14.5803Z" fill="white" stroke="#1CBABA" stroke-width="0.3"/>
<path d="M5.97987 31.486L6.40344 32.7179L6.46682 32.9023H6.67124H8.03894L6.93338 33.6613L6.76707 33.7755L6.83073 33.9606L7.25359 35.1905L6.14501 34.4295L5.97987 34.316L5.81471 34.4295L4.70612 35.1905L5.12898 33.9606L5.19264 33.7755L5.02634 33.6613L3.92078 32.9023H5.28849H5.4929L5.55627 32.7179L5.97987 31.486Z" fill="white" stroke="#1CBABA" stroke-width="0.3"/>
<path d="M7.90939 12.7484C7.90939 13.1356 7.57697 13.4513 7.1646 13.4513C6.75224 13.4513 6.4198 13.1356 6.4198 12.7484C6.4198 12.3613 6.75224 12.0457 7.1646 12.0457C7.57697 12.0457 7.90939 12.3613 7.90939 12.7484Z" fill="white" stroke="#1CBABA" stroke-width="0.3"/>
<path d="M14.0689 3.04807C14.0689 3.43524 13.7365 3.75085 13.3241 3.75085C12.9118 3.75085 12.5793 3.43524 12.5793 3.04807C12.5793 2.66089 12.9118 2.34528 13.3241 2.34528C13.7365 2.34528 14.0689 2.66089 14.0689 3.04807Z" fill="white" stroke="#1CBABA" stroke-width="0.3"/>
<path d="M24.615 5.43386C24.8742 5.43386 25.0845 5.23447 25.0845 4.98851C25.0845 4.74255 24.8742 4.54315 24.615 4.54315V5.43386ZM12.6966 40.5038C12.801 40.7289 13.078 40.8312 13.3154 40.7321C13.5527 40.6333 13.6605 40.3703 13.5561 40.1453L12.6966 40.5038ZM24.615 4.54315C18.2207 4.54315 12.884 8.53953 10.3412 15.0146C7.79982 21.4858 8.0323 30.4419 12.6966 40.5038L13.5561 40.1453C8.96597 30.2433 8.78387 21.5314 11.221 15.3256C13.6566 9.12358 18.6914 5.43386 24.615 5.43386V4.54315Z" fill="#1CBABA"/>
</svg>
