<svg width="45" height="28" viewBox="0 0 45 28" fill="none" xmlns="http://www.w3.org/2000/svg">
<path d="M2.84603 1.04004H39.1647L21.0053 13.4029L2.84603 1.04004ZM21.4658 15.0333L40.9565 1.76399V27.0202H1.05408V1.76399L20.5449 15.0333L21.0053 15.3468L21.4658 15.0333Z" fill="#1CBABA"/>
<path d="M40.29 23.6563L40.2908 23.6623L40.5856 25.1768C40.7043 25.7875 41.5361 25.8454 41.7396 25.266C42.264 23.7721 42.8903 21.9433 43.3389 20.4944C43.5154 19.9237 43.9155 18.6249 43.9885 17.3396C44.0623 16.0371 43.7968 14.8586 42.7643 14.3771C41.9578 14.0008 41.3604 14.0051 40.7357 14.1023C40.5734 14.1276 40.406 14.1601 40.23 14.1944L40.2207 14.1962C39.7228 14.2933 39.1603 14.403 38.4798 14.3962C38.0349 14.3917 37.6155 14.3322 37.2191 14.2616C37.072 14.2355 36.9303 14.2083 36.792 14.1817L36.7871 14.1807C36.5475 14.1346 36.3176 14.0904 36.0859 14.0566C35.3673 13.9515 34.7124 13.9605 34.0328 14.3673C33.3826 14.7564 33.0652 15.5277 33.0091 16.6164C32.9532 17.7012 33.1605 19.0485 33.503 20.5081C33.864 22.0474 34.5897 24.0635 35.1948 25.6239C35.4063 26.1693 36.1803 26.1103 36.3023 25.5198L36.6865 23.66L36.6869 23.6584L36.6872 23.6568L36.6884 23.6514L36.6928 23.6317C36.6967 23.6147 36.7024 23.5902 36.71 23.5593C36.7253 23.4976 36.7482 23.41 36.7791 23.3051C36.8407 23.0961 36.9352 22.8152 37.0661 22.5323C37.1961 22.2513 37.367 21.9574 37.5856 21.7307C37.8052 21.5029 38.0878 21.3288 38.4343 21.3274C38.7808 21.326 39.0699 21.4979 39.2989 21.7232C39.5274 21.948 39.7119 22.2409 39.8553 22.522C39.9996 22.8048 40.1073 23.0861 40.1791 23.2956C40.2149 23.4007 40.2423 23.4885 40.2602 23.5504L40.281 23.6229L40.2863 23.6426L40.2875 23.648L40.2883 23.6504L40.29 23.6563Z" fill="white" stroke="white"/>
</svg>
