<svg width="62" height="92" viewBox="0 0 62 92" fill="none" xmlns="http://www.w3.org/2000/svg">
<path d="M54.5567 48.5603C58.2856 41.9086 61.1998 36.9754 61.1998 29.9347C61.1998 13.4022 47.4998 0 30.5999 0C13.7 0 0 13.4022 0 29.9347C0 36.9756 3.39999 42.4075 6.64351 48.5607L30.6 91.7998L54.5567 48.5603Z" fill="#FFD910"/>
<path d="M35.1773 42.8451L35.1744 42.8303L35.1707 42.8157L34.6865 42.9405C35.1707 42.8157 35.1706 42.8156 35.1706 42.8154L35.1705 42.815L35.1702 42.8139L35.1692 42.8103L35.1659 42.7978L35.1536 42.7522C35.1429 42.7131 35.1271 42.6568 35.1062 42.5857C35.0645 42.4437 35.0024 42.2423 34.9201 42.0012C34.7559 41.5206 34.5086 40.8751 34.1776 40.2258C33.8487 39.5806 33.4248 38.9067 32.8984 38.3884C32.3711 37.8691 31.7015 37.4695 30.897 37.4727C30.0923 37.476 29.4378 37.8808 28.9315 38.4062C28.4277 38.929 28.035 39.6056 27.7369 40.2506C27.4366 40.9001 27.22 41.5448 27.0787 42.0243C27.0078 42.2649 26.9553 42.4659 26.9203 42.6076C26.9028 42.6786 26.8897 42.7348 26.8808 42.7738L26.8706 42.8193L26.8679 42.8319L26.8671 42.8355L26.8669 42.8366L26.8668 42.837C26.8668 42.8372 26.8667 42.8373 27.356 42.9405L26.8667 42.8373L26.8663 42.8394L26.0737 46.6786C25.7739 48.1305 23.8796 48.2706 23.3656 46.9347C22.0137 43.4214 20.4446 39.0151 19.6495 35.6232C18.8666 32.2828 18.393 29.2022 18.5207 26.7238C18.6489 24.2356 19.3732 22.4843 20.8461 21.602C22.3912 20.6766 23.88 20.6552 25.5204 20.8952C26.0497 20.9727 26.5742 21.0736 27.1216 21.1789C27.4419 21.2405 27.7699 21.3037 28.1114 21.3645C29.0191 21.5262 29.9804 21.6628 31.0008 21.673C32.5613 21.6888 33.8531 21.4366 34.993 21.2141C35.4018 21.1343 35.7911 21.0583 36.1663 20.9999C37.5907 20.7779 38.9503 20.7683 40.788 21.6261C43.1286 22.7188 43.7377 25.3956 43.5688 28.3755C43.4023 31.3133 42.4878 34.2829 42.0839 35.5896C41.1041 38.7588 39.7518 42.7228 38.5867 46.0534C38.089 47.4763 36.0497 47.3345 35.7586 45.8367L35.1773 42.8451Z" fill="white" stroke="#90CDC2"/>
</svg>