<svg width="26" height="39" viewBox="0 0 26 39" fill="none" xmlns="http://www.w3.org/2000/svg">
<path d="M23.1777 20.6302C24.7619 17.8043 26 15.7086 26 12.7174C26 5.69377 20.1797 0 13 0C5.8203 0 0 5.69377 0 12.7174C0 15.7086 1.44444 18.0163 2.82241 20.6304L13 39L23.1777 20.6302Z" fill="#1CBABA"/>
<path d="M8.74721 8.99518C10.1805 8.13667 11.5074 8.9784 13.1726 8.99517C14.928 9.01285 15.7611 8.22157 17.4183 8.99518C19.6672 10.045 18.4244 14.0746 18.0819 15.1826C17.7799 16.1596 17.3951 17.3129 17.0178 18.412C16.6199 19.5713 14.97 19.4459 14.7363 18.2428V18.2428C14.7363 18.2428 14.1914 16.128 13.1272 16.1323C12.0659 16.1366 11.622 18.2428 11.622 18.2428V18.2428C11.3503 19.5589 9.59973 19.7196 9.14845 18.4537C8.74994 17.3359 8.37088 16.1625 8.14119 15.1826C7.47335 12.3335 7.31394 9.85368 8.74721 8.99518Z" fill="white"/>
</svg>