<svg width="48" height="24" viewBox="0 0 48 24" fill="none" xmlns="http://www.w3.org/2000/svg">
<path d="M38.5443 22.9999C39.0645 22.9999 39.3518 22.6048 39.315 22.2643C38.4421 14.2063 31.5485 7.91675 23.1594 7.91675C14.7703 7.91675 7.87672 14.2063 7.00381 22.2643L38.5443 22.9999ZM38.5443 22.9999H7.77448C7.25432 22.9999 6.96695 22.6048 7.0038 22.2644L38.5443 22.9999Z" fill="#1CBABA" stroke="#1CBABA" stroke-width="2"/>
<path d="M11.7917 4.96175C11.7421 5.1068 11.6027 5.2801 11.3758 5.37814C11.3757 5.37815 11.3757 5.37815 11.3757 5.37815L3.72579 8.68318C3.49866 8.7813 3.27097 8.76616 3.12339 8.70054C2.99771 8.64466 2.94657 8.56888 2.93495 8.45738C2.71691 6.3645 3.86871 4.27685 5.93008 3.38627C7.99367 2.49472 10.3317 3.07877 11.7382 4.66739C11.7876 4.72326 11.8035 4.76816 11.8094 4.80208C11.8161 4.83985 11.8151 4.89323 11.7917 4.96175Z" fill="#1CBABA" stroke="#1CBABA" stroke-width="2"/>
<path d="M44.188 8.73742L44.188 8.73743C44.4132 8.83961 44.6411 8.82865 44.79 8.76568C44.9169 8.71202 44.9695 8.63701 44.9832 8.52567C45.24 6.43708 44.127 4.32913 42.0827 3.40137L42.0827 3.40137C40.0361 2.47258 37.6876 3.01395 36.2517 4.57697L44.188 8.73742ZM44.188 8.73742L36.6005 5.29402L36.6005 5.29401M44.188 8.73742L36.6005 5.29401M36.6005 5.29401C36.3756 5.19193 36.2395 5.01625 36.1927 4.87046M36.6005 5.29401L36.1927 4.87046M36.1927 4.87046C36.1705 4.80158 36.1705 4.7482 36.1779 4.71053M36.1927 4.87046L36.1779 4.71053M36.1779 4.71053C36.1845 4.67669 36.2012 4.63201 36.2517 4.57698L36.1779 4.71053Z" fill="#1CBABA" stroke="#1CBABA" stroke-width="2"/>
<path d="M16.8743 1.93774H31.1047C31.3951 1.93774 31.614 2.16835 31.614 2.43252C31.614 2.69669 31.3951 2.9273 31.1047 2.9273H16.8743C16.5839 2.9273 16.365 2.69669 16.365 2.43252C16.365 2.16835 16.5839 1.93774 16.8743 1.93774Z" fill="#1CBABA" stroke="#1CBABA" stroke-width="2"/>
<path d="M25.3018 19.2422L25.3024 19.2467L25.5168 20.3826C25.6031 20.8406 26.2081 20.884 26.3561 20.4495C26.7375 19.3291 27.193 17.9574 27.5192 16.8708C27.6476 16.4428 27.9385 15.4687 27.9916 14.5047C28.0453 13.5278 27.8522 12.644 27.1013 12.2828C26.5147 12.0006 26.0803 12.0038 25.6259 12.0767C25.5079 12.0957 25.3862 12.1201 25.2582 12.1458L25.2514 12.1472C24.8893 12.22 24.4802 12.3023 23.9853 12.2971C23.6617 12.2938 23.3567 12.2492 23.0684 12.1962C22.9614 12.1766 22.8584 12.1562 22.7578 12.1362L22.7542 12.1355C22.58 12.101 22.4128 12.0678 22.2443 12.0424C21.7217 11.9636 21.2454 11.9704 20.7511 12.2754C20.2783 12.5673 20.0474 13.1458 20.0066 13.9623C19.9659 14.7759 20.1168 15.7864 20.3658 16.8811C20.6284 18.0355 21.1562 19.5476 21.5962 20.718C21.75 21.127 22.3129 21.0827 22.4017 20.6398L22.6811 19.245L22.6814 19.2438L22.6816 19.2426L22.6825 19.2385L22.6857 19.2237C22.6885 19.211 22.6927 19.1926 22.6982 19.1695C22.7093 19.1232 22.7259 19.0575 22.7484 18.9788C22.7933 18.8221 22.862 18.6114 22.9571 18.3992C23.0517 18.1884 23.176 17.968 23.335 17.798C23.4947 17.6272 23.7002 17.4966 23.9522 17.4955C24.2042 17.4945 24.4145 17.6234 24.581 17.7924C24.7472 17.961 24.8814 18.1807 24.9857 18.3915C25.0906 18.6036 25.1689 18.8146 25.2211 18.9717C25.2472 19.0505 25.2671 19.1164 25.2802 19.1628L25.2953 19.2171L25.2991 19.232L25.3 19.236L25.3006 19.2378L25.3018 19.2422Z" fill="white" stroke="white"/>
</svg>
