<svg width="138" height="131" viewBox="0 0 138 131" fill="none" xmlns="http://www.w3.org/2000/svg">
<path d="M136 1.74512H3.58667C2.4821 1.74512 1.58667 2.64055 1.58667 3.74512V128.089C1.58667 129.194 2.48211 130.089 3.58667 130.089H136C137.104 130.089 138 129.194 138 128.089V3.74512C138 2.64055 137.104 1.74512 136 1.74512Z" fill="#FFD910"/>
<path d="M79.3131 85.3035L79.3066 85.2721L79.2983 85.2412L79.3594 85.5338C79.3131 85.3035 79.2983 85.2412 79.2983 85.2412L79.2978 85.2397L79.2971 85.2369L79.2947 85.2287L79.2866 85.1989L79.2556 85.0906C79.2285 84.9969 79.1886 84.8623 79.1361 84.6921C79.0307 84.3518 78.8739 83.8691 78.6658 83.2912C78.2506 82.1384 77.6258 80.5914 76.7903 79.0365C75.9593 77.4904 74.8922 75.8831 73.5729 74.6506C72.251 73.4159 70.5877 72.4793 68.5992 72.4869C66.6104 72.4944 64.9855 73.4429 63.7178 74.6908C62.4557 75.9331 61.4675 77.5459 60.7146 79.0912C59.9568 80.6463 59.4095 82.1912 59.0522 83.3412C58.8732 83.9178 58.7407 84.3995 58.6523 84.7389C58.6081 84.9089 58.5749 85.0431 58.5527 85.1365L58.5272 85.2448L58.5202 85.2746L58.5184 85.2829L58.5177 85.2857C58.5177 85.2857 58.5399 85.1907 58.5527 85.1365L58.5175 85.2872L58.5166 85.2914L56.1277 96.267C55.456 99.3533 51.1948 99.6642 50.0272 96.8195C46.4624 88.1346 42.0745 76.6457 39.9204 67.9278C37.933 59.885 36.7277 52.4555 37.0527 46.4708C37.379 40.465 39.224 36.1908 43.0236 34.0317C46.9852 31.7807 50.8023 31.7324 54.9792 32.3122C56.3247 32.499 57.6616 32.743 59.0531 32.997C59.8648 33.1452 60.6953 33.2968 61.557 33.4424C63.8566 33.8309 66.2865 34.1582 68.8631 34.1828C72.8059 34.2205 76.0609 33.6177 78.9495 33.0829C79.9902 32.8902 80.9833 32.7063 81.9439 32.5643C85.578 32.0272 89.0587 32.0037 93.7539 34.083C99.7823 36.7526 101.322 43.2818 100.894 50.4612C100.47 57.5506 98.1445 64.7123 97.12 67.8565C94.434 76.0986 90.6455 86.5714 87.5452 94.9406C86.4236 97.9682 81.8446 97.6625 81.1919 94.4759L79.3131 85.3035Z" fill="white"/>
<path d="M79.2983 85.2412L79.3066 85.2721L79.3131 85.3035L81.1919 94.4759C81.8446 97.6625 86.4236 97.9682 87.5452 94.9406C90.6455 86.5714 94.434 76.0986 97.12 67.8565C98.1445 64.7123 100.47 57.5506 100.894 50.4612C101.322 43.2818 99.7823 36.7526 93.7539 34.083C89.0587 32.0037 85.578 32.0272 81.9439 32.5643C80.9833 32.7063 79.9902 32.8902 78.9495 33.0829C76.0609 33.6177 72.8059 34.2205 68.8631 34.1828C66.2865 34.1582 63.8566 33.8309 61.557 33.4424C60.6953 33.2968 59.8648 33.1452 59.0531 32.997C57.6616 32.743 56.3247 32.499 54.9792 32.3122C50.8023 31.7324 46.9852 31.7807 43.0236 34.0317C39.224 36.1908 37.379 40.465 37.0527 46.4708C36.7277 52.4555 37.933 59.885 39.9204 67.9278C42.0745 76.6457 46.4624 88.1346 50.0272 96.8195C51.1948 99.6642 55.456 99.3533 56.1277 96.267L58.5166 85.2914L58.5175 85.2872L58.5527 85.1365M79.2983 85.2412L79.3594 85.5338C79.3131 85.3035 79.2983 85.2412 79.2983 85.2412ZM79.2983 85.2412L79.2978 85.2397L79.2971 85.2369L79.2947 85.2287L79.2866 85.1989L79.2556 85.0906C79.2285 84.9969 79.1886 84.8623 79.1361 84.6921C79.0307 84.3518 78.8739 83.8691 78.6658 83.2912C78.2506 82.1384 77.6258 80.5914 76.7903 79.0365C75.9593 77.4904 74.8922 75.8831 73.5729 74.6506C72.251 73.4159 70.5877 72.4793 68.5992 72.4869C66.6104 72.4944 64.9855 73.4429 63.7178 74.6908C62.4557 75.9331 61.4675 77.5459 60.7146 79.0912C59.9568 80.6463 59.4095 82.1912 59.0522 83.3412C58.8732 83.9178 58.7407 84.3995 58.6523 84.7389C58.6081 84.9089 58.5749 85.0431 58.5527 85.1365M58.5527 85.1365L58.5272 85.2448L58.5202 85.2746L58.5184 85.2829L58.5177 85.2857C58.5177 85.2857 58.5399 85.1907 58.5527 85.1365Z" stroke="#90CDC2"/>
</svg>