<svg width="111" height="69" viewBox="0 0 111 69" fill="none" xmlns="http://www.w3.org/2000/svg">
<path d="M6.42014 2H96.0062L51.2132 32.9072L6.42014 2ZM52.349 36.9832L100.426 3.8099V66.9504H2V3.8099L50.0773 36.9832L51.2132 37.767L52.349 36.9832Z" fill="#FFD910" stroke="white" stroke-width="4"/>
<path d="M100.805 55.2805L100.802 55.2657L100.798 55.2512L100.314 55.3759C100.798 55.2512 100.798 55.251 100.798 55.2509L100.798 55.2505L100.798 55.2493L100.797 55.2455L100.793 55.2322L100.78 55.1837C100.768 55.1419 100.752 55.0817 100.729 55.0058C100.685 54.8539 100.618 54.6385 100.53 54.3806C100.355 53.8664 100.09 53.1761 99.7362 52.4819C99.3845 51.792 98.932 51.0732 98.3716 50.5215C97.8102 49.9686 97.101 49.5467 96.2514 49.5501C95.4017 49.5535 94.7087 49.9808 94.17 50.5398C93.6338 51.0962 93.2148 51.8175 92.896 52.5072C92.5751 53.2015 92.3434 53.8909 92.1922 54.4039C92.1164 54.6613 92.0603 54.8762 92.0229 55.0277C92.0042 55.1035 91.9901 55.1636 91.9806 55.2053L91.9698 55.2537L91.9669 55.2671L91.9661 55.2709L91.9658 55.2721L91.9658 55.2725C91.9657 55.2726 91.9657 55.2728 92.455 55.3759L91.9657 55.2728L91.9653 55.2748L91.0229 59.8391C90.7237 61.2884 88.8255 61.4332 88.3069 60.0948C86.8231 56.2651 85.0434 51.3171 84.1579 47.5394C83.3183 43.9573 82.8096 40.6507 82.9468 37.9885C83.0845 35.3164 83.8628 33.4235 85.4573 32.4684C87.1239 31.4701 88.7299 31.448 90.4923 31.7059C91.0604 31.789 91.6242 31.8975 92.2117 32.0106C92.5549 32.0766 92.9062 32.1442 93.2711 32.2092C94.2434 32.3824 95.2719 32.5284 96.3629 32.5394C98.0318 32.5562 99.4113 32.287 100.633 32.0486C101.072 31.9629 101.49 31.8812 101.895 31.8182C103.427 31.5795 104.892 31.569 106.87 32.4925C109.402 33.6743 110.054 36.5665 109.872 39.7632C109.694 42.9176 108.712 46.1051 108.279 47.5058C107.18 51.0616 105.643 55.5499 104.357 59.2163C103.858 60.6383 101.818 60.4961 101.527 58.9973L100.805 55.2805Z" fill="white" stroke="#90CDC2"/>
</svg>