<svg width="103" height="52" viewBox="0 0 103 52" fill="none" xmlns="http://www.w3.org/2000/svg">
<path d="M83.5655 51.9998C85.7747 51.9998 87.5882 50.2027 87.3526 48.0061C85.361 29.4424 69.6447 14.9863 50.5521 14.9863C31.4594 14.9863 15.7431 29.4424 13.7515 48.0061C13.5159 50.2027 15.3294 51.9998 17.5386 51.9998H83.5655Z" fill="#FFD910"/>
<path d="M25.2617 13.6417C27.2865 12.7584 28.2514 10.3376 26.795 8.67655C23.1765 4.54984 17.1735 3.03626 11.8741 5.34801C6.57468 7.65977 3.60051 13.0895 4.16382 18.5489C4.39056 20.7464 6.82129 21.6859 8.84616 20.8026L25.2617 13.6417Z" fill="#FFD910"/>
<path d="M93.9333 20.9041C95.9416 21.8244 98.3892 20.9296 98.6562 18.7367C99.3195 13.2885 96.4454 7.80521 91.1892 5.39667C85.9331 2.98813 79.9033 4.39139 76.2098 8.45105C74.7232 10.0851 75.6435 12.5232 77.6518 13.4434L93.9333 20.9041Z" fill="#FFD910"/>
<rect x="32.9707" y="2.03174" width="37.0135" height="6.47736" rx="3.23868" fill="#FFD910"/>
<path d="M55.308 41.2257L55.3051 41.2109L55.3014 41.1963L54.8172 41.3211C55.3014 41.1963 55.3013 41.1962 55.3013 41.196L55.3012 41.1957L55.3009 41.1947L55.3001 41.1915L55.2973 41.1808L55.2869 41.1425C55.2779 41.1096 55.2647 41.0625 55.2472 41.0031C55.2124 40.8845 55.1606 40.7165 55.092 40.5155C54.9552 40.1152 54.7489 39.5766 54.4724 39.0341C54.198 38.4959 53.842 37.9288 53.3969 37.4905C52.9508 37.0512 52.3758 36.7048 51.679 36.7076C50.9817 36.7104 50.419 37.0616 49.9899 37.5068C49.5633 37.9495 49.2334 38.5193 48.9845 39.0576C48.7336 39.6005 48.5528 40.1386 48.4351 40.5382C48.376 40.7388 48.3322 40.9064 48.303 41.0249C48.2883 41.0841 48.2773 41.1312 48.2699 41.164L48.2613 41.2024L48.259 41.2131L48.2583 41.2163L48.2581 41.2173L48.258 41.2177C48.258 41.2178 48.2579 41.2179 48.7472 41.3211L48.2579 41.2179L48.2575 41.22L47.822 43.3294C47.5215 44.7847 45.6373 44.9128 45.136 43.58C44.1164 40.8689 43.0314 37.7246 42.4496 35.2424C41.8018 32.4786 41.4119 29.9372 41.517 27.8973C41.6226 25.8476 42.2181 24.4341 43.4009 23.7256C44.6559 22.9739 45.8654 22.9542 47.2148 23.1516C47.6515 23.2155 48.0823 23.2984 48.534 23.3854C48.7995 23.4365 49.0722 23.489 49.3576 23.5398C50.1111 23.674 50.9125 23.788 51.7644 23.7966C53.0661 23.8097 54.1488 23.5984 55.0945 23.4138C55.431 23.3481 55.7502 23.2858 56.0558 23.2382C57.2232 23.0563 58.3308 23.0484 59.8331 23.7497C61.7186 24.6299 62.2259 26.7927 62.0863 29.2558C61.9491 31.6766 61.1951 34.1263 60.8604 35.2088C60.1616 37.4693 59.2334 40.2194 58.3724 42.7025C57.8795 44.1239 55.8445 43.9869 55.5532 42.4875L55.308 41.2257Z" fill="white" stroke="#90CDC2"/>
</svg>